<svg width="80" height="73" viewBox="0 0 80 73" fill="none" xmlns="http://www.w3.org/2000/svg">
<g clip-path="url(#clip0_182_334)">
<g clip-path="url(#clip1_182_334)">
<path fill-rule="evenodd" clip-rule="evenodd" d="M79.2679 66.1994H21.5879V44.3594H79.2679V66.1994ZM48.1913 60.6003C45.2531 60.6003 42.8713 58.2184 42.8713 55.2803C42.8713 52.3421 45.2531 49.9603 48.1913 49.9603C51.1295 49.9603 53.5113 52.3421 53.5113 55.2803C53.5113 58.2184 51.1295 60.6003 48.1913 60.6003ZM28.3095 55.2803C28.3095 58.2184 30.6913 60.6003 33.6295 60.6003C36.5676 60.6003 38.9495 58.2184 38.9495 55.2803C38.9495 52.3421 36.5676 49.9603 33.6295 49.9603C30.6913 49.9603 28.3095 52.3421 28.3095 55.2803ZM62.7481 60.6003C59.81 60.6003 57.4281 58.2184 57.4281 55.2803C57.4281 52.3421 59.81 49.9603 62.7481 49.9603C65.6863 49.9603 68.0681 52.3421 68.0681 55.2803C68.0681 58.2184 65.6863 60.6003 62.7481 60.6003Z" fill="#EEFFBF"/>
<path fill-rule="evenodd" clip-rule="evenodd" d="M79.2647 37.6407H0.304688L0.30469 0.680664L79.2647 0.680671V37.6407ZM72.6195 22.5255H48.2381V30.9209H72.6195V22.5255ZM27.2564 7.3888H72.6195V15.7842H27.2564V7.3888Z" fill="#EEFFBF"/>
<path d="M0.42334 37.7606V44.2406H2.494L13.5802 37.7606H0.42334Z" fill="#EEFFBF" stroke="#EEFFBF" stroke-width="0.240001"/>
<path d="M79.143 66.3202V72.8002H77.0723L65.9861 66.3202H79.143Z" fill="#EEFFBF" stroke="#EEFFBF" stroke-width="0.240001"/>
</g>
</g>
<defs>
<clipPath id="clip0_182_334">
<rect width="80" height="73" fill="white"/>
</clipPath>
<clipPath id="clip1_182_334">
<rect width="80" height="73" fill="white"/>
</clipPath>
</defs>
</svg>
