<svg width="76" height="77" viewBox="0 0 76 77" fill="none" xmlns="http://www.w3.org/2000/svg">
<g clip-path="url(#clip0_182_348)">
<g clip-path="url(#clip1_182_348)">
<path fill-rule="evenodd" clip-rule="evenodd" d="M29.1049 12.2002H2.78492V38.5202H29.1049V12.2002ZM0.544922 9.96014V40.7602H31.3449V9.96014H0.544922Z" fill="#EEFFBF"/>
<path fill-rule="evenodd" clip-rule="evenodd" d="M29.1049 47.4802H2.78492V73.8002H29.1049V47.4802ZM0.544922 45.2402V76.0402H31.3449V45.2402H0.544922Z" fill="#EEFFBF"/>
<path fill-rule="evenodd" clip-rule="evenodd" d="M64.385 47.4802H38.0649V73.8002H64.385V47.4802ZM35.825 45.2402V76.0402H66.625V45.2402H35.825Z" fill="#EEFFBF"/>
<path fill-rule="evenodd" clip-rule="evenodd" d="M57.184 11.6348L45.0596 18.6348L52.0596 30.7591L64.184 23.7591L57.184 11.6348ZM33.585 15.5602L48.985 42.2337L75.6586 26.8337L60.2586 0.160156L33.585 15.5602Z" fill="#EEFFBF"/>
</g>
</g>
<defs>
<clipPath id="clip0_182_348">
<rect width="76" height="77" fill="white"/>
</clipPath>
<clipPath id="clip1_182_348">
<rect width="76" height="77" fill="white"/>
</clipPath>
</defs>
</svg>
